# xmcd CD database file
#
# Track frame offsets:
#	150
#	23859
#	50396
#	66838
#	100999
#	104053
#	120024
#	150150
#	172176
#	190803
#	193852
#	213832
#	231071
#	274665
#	289849
#
# Disc length: 4051 seconds
#
# Revision: 0
# Processed by: cddbd v1.5.2PL0 Copyright (c) Steve Scherf et al.
# Submitted via: CDex 1.79
#
DISCID=cf0fd10f
DTITLE=Bill Evans - Waltz For Debby [Box Set] [CD 1)
DYEAR=2011
DGENRE=Jazz
TTITLE0=Minority
TTITLE1=Young And Foolish
TTITLE2=Lucky To Be Me
TTITLE3=Night And Day
TTITLE4=Epilogue
TTITLE5=Tenderly
TTITLE6=Piece
TTITLE7=What Is There To Say
TTITLE8=Oleo
TTITLE9=Epilogue (2)
TTITLE10=Memories Of You (with Charles Mingus Jazz Workshop)
TTITLE11=Bli-Blip (with Cannonball Adderley)
TTITLE12=Freddie Freeloader (with Miles Davis)
TTITLE13=Whisper Not (with Hal McKusick)
TTITLE14=Summertime (with Bill Potts)
EXTD=YEAR: 2011
EXTT0=
EXTT1=
EXTT2=
EXTT3=
EXTT4=
EXTT5=
EXTT6=
EXTT7=
EXTT8=
EXTT9=
EXTT10=
EXTT11=
EXTT12=
EXTT13=
EXTT14=
PLAYORDER=
